<?xml version="1.0" encoding="utf-8"?>
<!-- Generator: Adobe Illustrator 15.0.0, SVG Export Plug-In . SVG Version: 6.00 Build 0)  -->
<!DOCTYPE svg PUBLIC "-//W3C//DTD SVG 1.1//EN" "http://www.w3.org/Graphics/SVG/1.1/DTD/svg11.dtd">
<svg version="1.1" id="图层_1" xmlns="http://www.w3.org/2000/svg" xmlns:xlink="http://www.w3.org/1999/xlink" x="0px" y="0px"
	 width="80px" height="80px" viewBox="0 0 80 80" enable-background="new 0 0 80 80" xml:space="preserve">
<path fill="#FF7200" d="M26.547,50.206l2.503-1.349l9.628,5.392V40.963L36.753,40l-9.628-5.584v10.977l-2.118,1.154l-8.087-4.621
	l-9.628,5.393v11.168l9.628,5.392l9.628-5.392L26.547,50.206L26.547,50.206z M56.008,46.547l-1.926-1.154V34.416l-11.553,6.547
	v13.286l9.627-5.392l2.504,1.349v8.278l9.627,5.393l9.629-5.393V47.316l-9.629-5.392L56.008,46.547z M56.008,11.887v8.857
	l10.205,5.585v10.013l0.965,0.578l6.738,3.852V21.707L56.008,11.887z M50.232,62.529l-9.629,5.199l-9.627-5.198l-1.541,0.963
	l-6.354,3.466l17.522,9.627l17.521-9.628l-6.354-3.466L50.232,62.529z M14.994,36.341V26.329L25.2,20.745v-8.857l-17.908,9.82
	v19.063l6.739-3.853L14.994,36.341z M29.05,31.143l11.554,6.546l1.926-1.155l9.629-5.392l-9.629-5.392v-1.348l7.703-4.429V8.997
	l-9.629-5.583l-9.627,5.584v10.976l7.702,4.429v1.348L29.05,31.143z"/>
</svg>
