<?xml version="1.0" encoding="utf-8"?>
<!-- Generator: Adobe Illustrator 15.0.0, SVG Export Plug-In . SVG Version: 6.00 Build 0)  -->
<!DOCTYPE svg PUBLIC "-//W3C//DTD SVG 1.1//EN" "http://www.w3.org/Graphics/SVG/1.1/DTD/svg11.dtd">
<svg version="1.1" id="图层_1" xmlns="http://www.w3.org/2000/svg" xmlns:xlink="http://www.w3.org/1999/xlink" x="0px" y="0px"
	 width="252.281px" height="132.754px" viewBox="0 0 252.281 132.754" enable-background="new 0 0 252.281 132.754"
	 xml:space="preserve">
<path opacity="0.3" fill="#00FFF6" enable-background="new    " d="M250.367,45.172h-57.698l-17.375-24.629H78.497L61.613,45.172
	H1.915C0.857,45.172,0,46.028,0,47.086v83.754c0,1.061,0.856,1.914,1.915,1.914h248.45c1.062,0,1.916-0.854,1.916-1.914V47.086
	C252.281,46.028,251.427,45.172,250.367,45.172z"/>
<g>
	<path fill="#4ABCC2" d="M82.421,122.363c0,1.078-0.875,1.953-1.954,1.953H35.868c-1.079,0-1.953-0.875-1.953-1.953V58.232
		c0-1.079,0.875-1.953,1.953-1.953h44.599c1.079,0,1.954,0.875,1.954,1.953V122.363z"/>
	<path opacity="0.25" enable-background="new    " d="M82.421,90.297c-9.548,0-40.923,0-48.506,0V58.231
		c0-1.079,0.875-1.953,1.953-1.953h44.599c1.079,0,1.954,0.875,1.954,1.953V90.297z"/>
	<rect x="33.915" y="85.922" width="2.917" height="8.75"/>
	<rect x="79.504" y="85.922" width="2.917" height="8.75"/>
	<rect x="36.29" y="89.34" width="45.875" height="1.916"/>
</g>
<g>
	<path fill="#4ABCC2" d="M151.647,122.363c0,1.078-0.875,1.953-1.954,1.953h-44.599c-1.079,0-1.953-0.875-1.953-1.953V58.232
		c0-1.079,0.875-1.953,1.953-1.953h44.6c1.079,0,1.954,0.875,1.954,1.953L151.647,122.363L151.647,122.363z"/>
	<path opacity="0.25" enable-background="new    " d="M151.647,90.297c-9.549,0-40.924,0-48.507,0V58.231
		c0-1.079,0.875-1.953,1.953-1.953h44.6c1.079,0,1.954,0.875,1.954,1.953V90.297z"/>
	<rect x="103.14" y="85.922" width="2.917" height="8.75"/>
	<rect x="148.73" y="85.922" width="2.917" height="8.75"/>
	<rect x="105.515" y="89.34" width="45.875" height="1.916"/>
</g>
<g>
	<path fill="#4ABCC2" d="M220.873,122.363c0,1.078-0.875,1.953-1.953,1.953h-44.599c-1.079,0-1.953-0.875-1.953-1.953V58.232
		c0-1.079,0.875-1.953,1.953-1.953h44.599c1.078,0,1.953,0.875,1.953,1.953V122.363z"/>
	<path opacity="0.25" enable-background="new    " d="M220.873,90.297c-9.549,0-40.922,0-48.505,0V58.231
		c0-1.079,0.875-1.953,1.953-1.953h44.599c1.078,0,1.953,0.875,1.953,1.953V90.297z"/>
	<rect x="172.367" y="85.922" width="2.917" height="8.75"/>
	<rect x="217.957" y="85.922" width="2.916" height="8.75"/>
	<rect x="174.742" y="89.34" width="45.875" height="1.916"/>
</g>
<g>
	<path fill="#FFFFFF" d="M94.091,35.755c-0.771-0.618-2.336-1.505-3.552-2.104l0.771-1.062c1.195,0.541,2.777,1.389,3.589,1.949
		L94.091,35.755z M95.807,38.302c-1.021,2.026-2.372,4.419-3.491,6.214l-1.197-0.984c1.044-1.447,2.528-3.994,3.647-6.175
		L95.807,38.302z M95.171,30.506c-0.791-0.617-2.373-1.543-3.607-2.142l0.791-1.042c1.195,0.541,2.816,1.409,3.646,2.007
		L95.171,30.506z M108.138,42.759v1.37H95.537v-1.37h5.636V37.8H96.89v-1.37h4.283v-4.303h-5.058v-1.37h11.577v1.37h-5.036v4.303
		h4.342v1.37h-4.342v4.959H108.138z M101.828,30.68c-0.271-0.83-0.946-2.2-1.584-3.203l1.293-0.463
		c0.656,0.984,1.392,2.296,1.659,3.126L101.828,30.68z"/>
	<path fill="#FFFFFF" d="M127.394,36.083h-2.064v6.889c0,0.829-0.193,1.235-0.715,1.485c-0.521,0.231-1.389,0.271-2.799,0.271
		c-0.076-0.386-0.289-1.003-0.463-1.37c1.004,0.039,1.93,0.039,2.182,0.02c0.289-0.02,0.387-0.116,0.387-0.405v-6.889h-3.105
		c-0.115,2.856-0.617,6.271-2.221,8.683c-0.213-0.29-0.791-0.811-1.08-0.984c1.447-2.219,1.814-5.152,1.91-7.699h-1.969v6.812
		c0,0.791-0.193,1.196-0.695,1.428c-0.539,0.231-1.369,0.251-2.699,0.251c-0.059-0.367-0.289-0.945-0.465-1.293
		c0.945,0.02,1.834,0.02,2.104,0c0.271,0,0.367-0.097,0.367-0.386v-6.812h-2.738c-0.137,2.875-0.676,6.31-2.471,8.76
		c-0.213-0.309-0.753-0.849-1.043-1.003c1.604-2.238,2.027-5.19,2.145-7.757h-2.124v-1.39h2.161V34.27v-5.905h5.461v6.329h2.006
		v-0.405v-5.924h5.867v6.329h2.063V36.083L127.394,36.083z M116.066,34.693v-4.997h-2.701v4.573v0.424H116.066z M123.919,34.693
		v-4.997h-3.066v4.592v0.405H123.919z"/>
	<path fill="#FFFFFF" d="M145.316,42.779c0,0.926-0.25,1.351-0.867,1.602c-0.654,0.231-1.775,0.251-3.59,0.231
		c-0.059-0.386-0.289-1.003-0.48-1.39c1.352,0.058,2.662,0.039,3.01,0.039c0.387-0.02,0.521-0.135,0.521-0.502v-3.917h-5.188v5.692
		h-1.432v-5.692h-4.82c-0.289,2.142-0.947,4.341-2.414,5.981c-0.211-0.289-0.789-0.772-1.102-0.945
		c2.123-2.393,2.316-5.789,2.316-8.471v-6.946h14.047v14.318H145.316z M137.288,37.473V34.27h-4.609v1.138
		c0,0.637-0.021,1.351-0.078,2.065H137.288z M132.679,29.832v3.087h4.609v-3.087H132.679L132.679,29.832z M143.907,29.832h-5.189
		v3.087h5.189V29.832z M143.907,37.473V34.27h-5.189v3.203H143.907z"/>
	<path fill="#FFFFFF" d="M163.82,30.063v7.795h-1.447v-1.254h-10.111c-0.213,2.759-0.867,5.943-2.76,8.22
		c-0.23-0.25-0.867-0.714-1.215-0.868c2.334-2.836,2.586-6.831,2.586-9.725v-4.167h6.232c-0.232-0.753-0.658-1.853-1.043-2.702
		l1.389-0.366c0.441,0.887,0.945,2.045,1.178,2.797l-0.887,0.271L163.82,30.063L163.82,30.063z M162.372,35.254v-3.84h-10.035v2.817
		c0,0.328,0,0.656-0.02,1.023H162.372z"/>
</g>
<g>
	<path fill="#00DBDB" d="M12.689,39.632V2.641C14.057,2.386,15.144,1.343,15.471,0H8.608c0.327,1.343,1.414,2.386,2.781,2.641
		v36.991c-2.684,0.322-4.767,2.603-4.767,5.374c0,2.992,2.425,5.417,5.417,5.417s5.417-2.425,5.417-5.417
		C17.456,42.235,15.374,39.954,12.689,39.632z"/>
	<path fill="#00DBDB" d="M240.298,39.632V2.641c1.367-0.255,2.455-1.298,2.781-2.641h-6.86c0.325,1.343,1.411,2.386,2.78,2.641
		v36.991c-2.686,0.322-4.768,2.603-4.768,5.374c0,2.992,2.426,5.417,5.416,5.417c2.992,0,5.418-2.425,5.418-5.417
		C245.067,42.235,242.983,39.954,240.298,39.632z"/>
</g>
</svg>
