<?xml version="1.0" encoding="utf-8"?>
<!-- Generator: Adobe Illustrator 15.0.0, SVG Export Plug-In . SVG Version: 6.00 Build 0)  -->
<!DOCTYPE svg PUBLIC "-//W3C//DTD SVG 1.1//EN" "http://www.w3.org/Graphics/SVG/1.1/DTD/svg11.dtd">
<svg version="1.1" id="图层_1" xmlns="http://www.w3.org/2000/svg" xmlns:xlink="http://www.w3.org/1999/xlink" x="0px" y="0px"
	 width="80px" height="80px" viewBox="0 0 80 80" enable-background="new 0 0 80 80" xml:space="preserve">
<g>
	<path fill="#3af600" d="M72.172,13H8.578c-2.776,0-5.047,2.289-5.047,5.087v44.52c0,2.797,2.271,5.086,5.047,5.086h63.594
		c2.775,0,5.047-2.289,5.047-5.086v-44.52C77.219,15.288,74.947,13,72.172,13L72.172,13z M69.078,17.235l-27.59,23.688
		c-0.944,0.952-0.94,0.954-1.887,0l-27.59-23.688H69.078z M73.072,61.136L55.298,42.079c-0.985-0.993-2.583-0.993-3.569,0
		c-0.985,0.994-0.985,2.604,0,3.597l16.084,17.827H13.592l16.083-17.827c0.987-0.992,0.987-2.604,0-3.597
		c-0.985-0.993-2.583-0.993-3.567,0L7.745,61.453V20.851l28.286,23.667c1.427,1.438,2.645,2.503,4.672,2.503
		c2.024,0,2.929-1.065,4.353-2.503l28.017-23.668V61.136z M73.072,61.136"/>
</g>
</svg>
