<?xml version="1.0" encoding="utf-8"?>
<!-- Generator: Adobe Illustrator 15.0.0, SVG Export Plug-In . SVG Version: 6.00 Build 0)  -->
<!DOCTYPE svg PUBLIC "-//W3C//DTD SVG 1.1//EN" "http://www.w3.org/Graphics/SVG/1.1/DTD/svg11.dtd">
<svg version="1.1" id="图层_1" xmlns="http://www.w3.org/2000/svg" xmlns:xlink="http://www.w3.org/1999/xlink" x="0px" y="0px"
	 width="40px" height="40px" viewBox="-5 -5 40 40" enable-background="new -5 -5 40 40" xml:space="preserve">
<path fill="#00FCFF" d="M29.804,31.889H0.219c-1.76,0-3.21-1.262-3.21-3.021v-3.519c0-1.76,1.426-3.021,3.21-3.021h29.589
	c1.76,0,3.21,1.262,3.21,3.021v3.519C33.018,30.631,31.587,31.889,29.804,31.889z M26.26,24.874c-1.237,0-2.258,1-2.258,2.258
	c0,1.237,1.024,2.258,2.258,2.258c1.238,0,2.258-1,2.258-2.258C28.522,25.874,27.521,24.874,26.26,24.874z M29.804,19.808H0.219
	c-1.76,0-3.21-1.261-3.21-3.021v-3.52c0-1.76,1.426-3.021,3.21-3.021h29.589c1.76,0,3.21,1.261,3.21,3.021v3.52
	C33.018,18.547,31.587,19.808,29.804,19.808z M24.026,15.027c0,1.237,1.024,2.258,2.258,2.258s2.258-1,2.258-2.258
	c0-1.237-1-2.258-2.258-2.258C25.022,12.77,24.026,13.79,24.026,15.027z M29.804,7.438H0.219c-1.76,0-3.21-1.237-3.21-2.924V1.086
	c0-1.711,1.426-2.949,3.21-2.949h29.589c1.76,0,3.21,1.237,3.21,2.949v3.403C33.018,6.205,31.587,7.438,29.804,7.438z M26.26,0.685
	c-1.237,0-2.258,1-2.258,2.258c0,1.258,1.024,2.258,2.258,2.258c1.238,0,2.258-1,2.258-2.258C28.518,1.685,27.521,0.685,26.26,0.685
	z"/>
</svg>
