<?xml version="1.0" encoding="utf-8"?>
<!-- Generator: Adobe Illustrator 15.0.0, SVG Export Plug-In . SVG Version: 6.00 Build 0)  -->
<!DOCTYPE svg PUBLIC "-//W3C//DTD SVG 1.1//EN" "http://www.w3.org/Graphics/SVG/1.1/DTD/svg11.dtd">
<svg version="1.1" id="图层_1" xmlns="http://www.w3.org/2000/svg" xmlns:xlink="http://www.w3.org/1999/xlink" x="0px" y="0px"
	 width="40px" height="40px" viewBox="0 0 40 40" enable-background="new 0 0 40 40" xml:space="preserve">
<path fill="#FCFF00" d="M19.418,1.501c1.571-0.026,2.657,0.223,3.597,0.815l0.959,0.754c0.539-0.12,1.029-0.347,1.65-0.454
	c2.509-0.432,4.696,1.975,4.166,4.556c-0.409,2.008-1.446,3.836-2.877,4.827l0.03,0.061c1.297,0.406,2.468,1.364,3.479,2.111
	c3.528,2.611,5.862,6.335,6.986,11.375c0.256,1.152,0.299,2.378,0.299,3.771c0,4.609-1.386,7.836-4.857,8.931
	c-1.049,0.33-2.559,0.241-3.928,0.241H12.432c-3.272,0-5.164,0.145-7.077-1.27c-2.504-1.851-3.662-6.599-2.757-11.133
	c0.91-4.558,2.903-8.58,5.906-11.011c0.901-0.727,1.802-1.469,2.819-2.08l1.799-0.935l-0.929-0.996
	c-0.832-1.046-1.426-2.26-1.74-3.559c-0.609-2.5,0.644-4.119,2.458-4.676c0.405-0.124,1.008-0.302,1.59-0.212
	c0.623,0.097,1.106,0.361,1.648,0.422c0.542-0.589,1.368-1.061,2.219-1.327C18.717,1.641,19.067,1.57,19.418,1.501z M18.757,25.484
	v1.78c-1.412-0.024-4.196-0.48-4.018,1.115c0.131,1.182,2.716,0.809,4.018,0.784c-0.033,1.241,0.014,1.991,1.02,2.202
	c0.213,0.045,0.597,0.06,0.779-0.03c0.658-0.321,0.718-1.147,0.688-2.173c1.378,0.021,3.89,0.417,4.105-0.784
	c0.302-1.651-2.724-1.196-4.105-1.178l0.029-1.719c1.38,0.023,4.453,0.409,4.048-1.299c-0.279-1.179-2.641-0.84-4.077-0.813v-0.996
	l3.538-3.891c0.314-0.411,0.484-1.002,0.12-1.478c-0.317-0.416-1.009-0.486-1.47-0.151c-1.143,0.835-2.396,2.358-3.388,3.409
	l-0.06-0.03l-0.81-0.905c-0.515-0.645-1.579-2.044-2.219-2.474c-0.461-0.309-1.237-0.563-1.62,0c-0.361,0.532-0.108,1.348,0.21,1.78
	c0.942,1.28,2.307,2.443,3.268,3.741l-0.06,1.059c-1.427-0.028-4.379-0.488-3.988,1.295C15.018,25.862,17.406,25.51,18.757,25.484z"
	/>
</svg>
