<?xml version="1.0" encoding="utf-8"?>
<!-- Generator: Adobe Illustrator 15.0.0, SVG Export Plug-In . SVG Version: 6.00 Build 0)  -->
<!DOCTYPE svg PUBLIC "-//W3C//DTD SVG 1.1//EN" "http://www.w3.org/Graphics/SVG/1.1/DTD/svg11.dtd">
<svg version="1.1" id="图层_1" xmlns="http://www.w3.org/2000/svg" xmlns:xlink="http://www.w3.org/1999/xlink" x="0px" y="0px"
	 width="1619.445px" height="180.609px" viewBox="0 0 1619.445 180.609" enable-background="new 0 0 1619.445 180.609"
	 xml:space="preserve">
<g>
	<path fill="#FFFFFF" d="M316.604,86.667v9.776H209.79v-9.776h46.015v-4.171H221.35V73.91h34.455v-4.053h-38.506V60.56h38.506
		v-4.885h13.948v4.885h40.057v9.298h-40.057v4.053h36.001v8.585h-36.001v4.171H316.604z M234.822,52.212h-24.438V41.128h24.438
		v-5.602h13.827v5.602h28.253v-5.602h13.833v5.602h25.272v11.084h-25.272v5.845h-13.833v-5.845h-28.253v5.845h-13.827V52.212z
		 M302.657,134.231c0,6.2-1.433,9.057-5.846,10.85c-4.291,1.67-10.606,1.79-18.954,1.67c-0.713-3.335-2.623-7.743-4.17-10.727
		c4.888,0.233,10.967,0.233,12.518,0.119c1.787-0.119,2.383-0.482,2.383-1.912v-2.025H238.04v14.665h-13.829v-46.612h78.445V134.231
		z M238.04,109.916v4.405h50.547v-4.405H238.04z M288.587,125.174v-4.052H238.04v4.052H288.587z"/>
	<path fill="#FFFFFF" d="M391.124,85.119c-0.716,0.951-1.434,1.905-2.148,2.98c14.069,12.516,30.641,19.665,49.354,25.392
		c-3.457,3.098-7.151,8.103-8.82,12.396c-4.529-1.782-8.821-3.576-13.113-5.478v26.583h-14.065v-3.463h-40.18v3.463h-13.47v-27.421
		c-4.767,2.381-9.658,4.407-14.662,6.201c-1.791-3.579-5.244-8.345-8.466-11.568c21.462-6.559,42.322-18.357,53.409-34.453
		L391.124,85.119z M353.449,53.287H329.61V41.485h23.839v-5.959h13.833v5.959h29.206v-5.959h13.832v5.959h24.915v11.802h-24.915
		v6.795h-13.832v-6.795h-29.206v6.795h-13.833V53.287z M432.966,85.475h-13.71V75.103H345.94v10.373h-13.113V63.897h42.322
		c-0.599-2.147-1.552-4.412-2.387-6.199l14.188-2.744c1.313,2.744,2.741,5.961,3.936,8.942h42.081V85.475z M370.855,80.706
		c-6.675,8.584-17.521,16.571-27.177,21.459c-2.029-2.387-6.438-7.393-9.184-9.538c9.299-3.578,18.718-9.655,24.083-15.974
		L370.855,80.706z M402.331,132.088v-10.966h-40.18v10.966H402.331z M396.847,109.675c-5.487-3.572-10.73-7.631-15.856-12.397
		c-4.649,4.648-9.541,8.703-15.02,12.397H396.847z M403.639,76.176c8.941,4.887,19.792,12.638,25.749,17.405l-10.607,7.87
		c-5.724-5.365-16.691-13.352-25.513-18.479L403.639,76.176z"/>
	<path fill="#FFFFFF" d="M453.716,70.336c7.039,3.695,16.576,9.415,21.344,13.707L466,94.895
		c-4.295-4.296-13.473-10.732-20.624-14.904L453.716,70.336z M469.335,98.591l10.609,9.414
		c-5.959,12.279-12.992,25.513-19.787,36.963l-12.279-9.541C453.837,126.601,462.544,112.18,469.335,98.591z M460.158,38.264
		c6.795,3.936,16.213,10.253,20.623,14.546l-9.299,10.494c-4.17-4.414-13.113-11.209-20.027-15.501L460.158,38.264z M554.337,56.147
		h-57.221v71.527h59.486v13.83h-74.271V42.199h72.006V56.147z"/>
	<path fill="#FFFFFF" d="M765.566,46.134v11.92h-105.27v-11.92h45.902c-0.957-2.862-1.91-5.845-2.865-8.346l14.662-3.575
		c1.313,3.695,3.221,8.107,4.65,11.921H765.566z M762.826,133.402c0,6.191-1.553,8.7-6.084,10.484
		c-4.289,1.43-10.729,1.554-18.953,1.43c-0.719-3.097-2.623-7.148-4.172-10.011h-34.1v5.004h-13.111v-31.467h51.859v26.463h-1.668
		c4.172,0.121,8.346,0.121,9.535,0c1.668,0,2.383-0.475,2.383-2.029v-28.851h-71.17v41.844h-13.707V92.984h99.188V133.402z
		 M751.378,88.094h-75.225V62.586h75.225V88.094z M736.478,72.12h-46.137v6.561h46.137V72.12z M725.75,118.731h-26.232v6.8h26.232
		V118.731z"/>
	<path fill="#FFFFFF" d="M797.404,111.94c-2.859,7.871-7.389,16.331-12.039,21.577c-2.146-1.791-6.555-5.131-9.178-6.677
		c4.529-4.53,8.105-11.325,10.254-17.641L797.404,111.94z M813.023,105.98v25.51c0,5.722-0.953,8.7-4.529,10.729
		c-3.574,1.907-8.346,2.026-14.664,2.026c-0.479-3.342-2.146-8.229-3.814-11.566c3.574,0.121,7.271,0.121,8.582,0.121
		s1.67-0.354,1.67-1.664V105.98H778.33V94.056h21.938v-9.179h-22.652V73.196H789.3c-0.598-3.699-1.91-8.705-3.578-12.398
		l9.777-2.384h-16.094V46.848h20.385c-1.072-3.221-2.387-6.56-3.578-9.419l12.635-2.975c1.793,3.81,3.822,8.459,5.131,12.394h18.84
		v11.565h-15.029l9.783,1.906c-1.91,4.53-3.578,9.178-5.371,12.876h12.4v11.682h-21.578v9.179h19.67v11.924H813.023z
		 M797.167,58.413c2.025,4.052,3.578,9.657,4.051,13.231l-5.719,1.551h14.066c1.791-4.294,3.934-10.374,5.129-14.782H797.167z
		 M887.771,87.381h-11.094v58.532h-13.822V87.381h-11.682v0.834c0,17.524-1.551,41.848-11.807,56.745
		c-2.264-2.498-7.869-6.909-10.852-8.463c2.27-3.335,4.063-7.272,5.248-11.448l-9.416,5.961c-1.906-4.882-5.959-12.393-9.295-17.88
		l9.295-5.125c3.572,5.365,7.508,12.396,9.541,16.813c3.697-11.688,4.051-25.156,4.051-36.603V46.372
		c13.109-2.384,27.541-6.083,36.123-10.135l10.967,10.37c-9.896,3.816-22.174,6.796-33.855,8.942v18.718h36.598V87.381z"/>
	<path fill="#FFFFFF" d="M937.496,98.707c-4.18,1.193-8.471,2.383-12.754,3.45v28.498c0,6.914-1.318,10.249-5.375,12.518
		c-3.926,2.144-9.652,2.509-17.996,2.509c-0.598-3.579-2.383-9.185-4.053-12.881c4.65,0.12,9.543,0.12,11.084,0.12
		c1.793,0,2.268-0.598,2.268-2.384V105.98l-11.563,2.862l-3.699-13.475c4.408-0.835,9.541-2.027,15.262-3.457V70.809h-13.707V57.696
		h13.707V35.047h14.072v22.649h11.68v13.113h-11.68v17.646l10.959-2.744L937.496,98.707z M1003.541,82.612
		c-4.531,16.57-12.164,29.569-22.176,39.582c7.744,5.481,16.93,9.416,27.539,12.038c-2.979,2.865-7.035,8.585-9.059,12.278
		c-11.564-3.462-21.461-8.342-29.693-15.02c-9.293,6.437-19.781,11.213-31.346,14.664c-1.553-3.82-5.008-9.771-7.633-12.878
		c10.498-2.499,20.152-6.316,28.496-11.683c-7.041-7.982-12.637-17.4-16.928-28.371l3.57-1.074h-6.193V79.393h23.479V65.089h-25.631
		V51.975h25.631V34.926h14.072v17.049h26.701v13.114h-26.701v14.305h14.307l2.498-0.597L1003.541,82.612z M956.564,92.148
		c3.34,7.869,8.109,15.024,14.07,21.103c6.199-5.961,11.324-12.999,14.908-21.103H956.564z"/>
	<path fill="#FFFFFF" d="M1084.853,78.203c10.373,16.213,27.184,32.897,42.676,42.557c-3.695,2.977-8.816,8.822-11.441,12.757
		c-13.119-9.78-26.584-25.031-37.197-41.128v54.002h-15.613V97.513c-10.492,15.381-23.846,28.49-38.506,36.958
		c-2.51-3.694-7.277-9.535-10.727-12.52c18.238-9.058,35.398-25.986,45.178-43.749h-40.531V64.25h44.586V35.167h15.613V64.25h43.518
		v13.953H1084.853z M1102.968,62.586c-4.283-4.77-13.107-12.52-19.668-17.763l10.494-8.702c6.318,4.887,15.617,12.039,20.145,16.805
		L1102.968,62.586z"/>
	<path fill="#FFFFFF" d="M1179.041,130.896c0,6.557-0.949,10.484-4.887,12.873c-3.693,2.269-8.824,2.622-16.572,2.622
		c-0.355-3.688-2.025-10.134-3.816-13.712c4.293,0.241,8.709,0.121,10.135,0.121c1.43,0,2.027-0.478,2.027-2.146v-23.606h-12.516
		c-1.076,13.952-3.457,28.612-8.35,39.461c-2.498-2.023-8.342-5.361-11.441-6.556c7.391-16.217,7.863-40.054,7.863-57.463V39.219
		h37.557V130.896z M1165.927,93.701V79.275h-11.68v3.216c0,3.579,0,7.274-0.117,11.21H1165.927z M1154.248,52.332V66.16h11.68
		V52.332H1154.248z M1244.138,82.972c-2.75,16.09-7.635,29.208-14.313,39.934c5.129,5.248,11.086,9.658,17.637,12.521
		c-2.855,2.624-6.787,7.621-8.816,11.083c-6.199-3.462-11.922-7.869-16.924-12.992c-4.537,5.008-9.773,9.299-15.621,12.752
		c-1.426-2.74-4.406-6.917-7.029-9.532v9.772h-13.477V39.339h54.84v23.006c0,6.202-1.314,9.54-6.32,11.445
		c-4.65,1.79-11.439,1.79-20.5,1.79c-0.596-3.694-2.506-8.465-4.174-11.922c5.963,0.356,12.996,0.356,14.902,0.24
		c1.908-0.12,2.496-0.476,2.496-1.909v-9.537h-27.768v28.255h34.451l2.143-0.479L1244.138,82.972z M1199.072,135.185
		c5.361-2.979,10.127-7.155,14.543-12.161c-5.844-8.703-10.252-18.715-13.83-29.563h-0.713V135.185z M1211.824,93.462
		c2.379,6.556,5.486,12.873,9.182,18.595c3.221-5.604,5.834-11.917,7.746-18.595H1211.824z"/>
	<path fill="#FFFFFF" d="M1356.8,51.498c-7.15,10.37-17.402,18.478-29.682,24.794c11.326,2.504,24.203,3.936,38.025,4.535
		c-2.855,3.096-6.076,8.701-7.871,12.396c-18.236-1.312-34.447-4.172-47.922-9.18c-15.26,5.248-32.064,8.581-48.877,10.612
		c-0.955-3.579-3.338-9.18-5.486-12.4c13.002-1.076,25.996-3.096,37.916-6.199c-4.652-2.744-8.709-6.08-12.521-9.896
		c-4.049,2.859-8.467,5.725-13.463,8.228c-1.672-3.341-5.605-8.707-8.23-10.967c16.805-7.631,27.896-18.361,33.971-28.495
		l14.428,2.982c-1.789,2.863-3.695,5.719-5.84,8.464h44.584l2.027-0.599L1356.8,51.498z M1355.373,101.09
		c0,0-0.361,3.818-0.713,5.721c-2.625,20.271-5.605,29.805-10.023,33.621c-3.455,3.216-7.262,4.168-12.637,4.409
		c-4.408,0.24-12.037,0.24-19.91-0.113c-0.23-3.695-2.025-8.825-4.408-12.163c7.758,0.712,16.332,0.838,19.91,0.838
		c2.508,0,4.178-0.126,5.719-1.32c2.385-1.902,4.652-7.747,6.445-18.952h-31.834c-8.104,17.407-22.176,27.061-43.752,33.024
		c-1.428-2.981-5.602-8.942-8.227-11.683c17.408-3.575,29.449-10.012,36.365-21.342h-28.496v-12.04h33.742
		c0.713-3.219,1.426-6.435,1.902-10.135l14.662,1.193c-0.592,3.22-1.188,6.082-2.029,8.941H1355.373z M1289.558,58.886
		c4.893,5.011,11.449,9.063,19.674,12.28c9.543-3.454,17.887-7.746,24.443-12.994h-43.279L1289.558,58.886z"/>
	<path fill="#FFFFFF" d="M1409.386,127.082c6.436,2.143,14.545,2.741,24.318,2.741c9.057,0.115,40.891,0.115,51.617-0.481
		c-2.025,3.338-4.408,9.778-5.363,14.074h-46.254c-22.178,0-36.363-2.984-45.781-16.334c-1.309,7.39-3.096,13.822-5.48,19.31
		c-2.379-1.664-8.344-5.011-11.322-6.201c5.959-11.804,6.906-30.99,7.033-51.256l12.395,0.831c0,5.487-0.24,10.965-0.475,16.215
		c1.785,5.359,3.934,9.535,6.676,12.637V82.972h-22.416v-12.52h20.152V59.485h-17.406V47.204h17.406V35.167h13.107v12.037h16.93
		v12.281h-16.93v10.967h18.953v2.98c7.871-5.006,12.164-12.28,14.191-22.175h-12.752V39.455h52.568c0,0,0,3.222-0.115,4.89
		c-0.838,19.79-1.908,28.494-4.775,31.831c-2.139,2.621-4.764,3.575-7.986,4.052c-2.979,0.358-7.871,0.479-13.232,0.237
		c-0.117-3.574-1.547-8.701-3.455-11.918c4.178,0.472,7.871,0.472,9.656,0.472c1.428,0,2.504-0.236,3.457-1.19
		c1.078-1.549,1.908-5.962,2.504-16.572h-12.639c-2.738,15.023-9.18,25.397-20.023,32.31c-1.551-1.549-4.648-4.057-7.398-6.083
		v5.488h-17.16v12.993h15.732v12.28h-15.732V127.082z M1431.08,84.998h46.621v37.553h-46.621V84.998z M1444.314,111.227h19.314
		V96.439h-19.314V111.227z"/>
	<path fill="#FFFFFF" d="M1554.722,64.968v13.355h38.383v40.173c0,7.034-1.428,10.969-6.438,13.112
		c-4.891,2.266-11.805,2.381-20.98,2.381c-0.596-4.167-2.75-10.127-4.773-13.946c5.961,0.356,12.994,0.356,14.785,0.24
		c2.029,0,2.627-0.473,2.627-2.027V92.148h-23.604v53.649h-14.787V92.148h-22.053v41.842h-14.307V78.323h36.359V64.968h-46.369
		V51.14h47.797c-1.785-4.292-4.053-9.181-6.076-13.112l14.061-4.415c2.982,5.487,6.916,12.638,8.941,17.526h43.998v13.828H1554.722z
		"/>
	<circle fill="#FFFFFF" cx="599.46" cy="91.616" r="10.762"/>
</g>
<g>
	<polygon fill="#FFFFFF" points="44.975,59.369 36.827,59.369 36.827,53.756 59.735,53.756 59.735,59.369 51.631,59.369 
		51.631,83.276 44.975,83.276 	"/>
	<polygon fill="#FFFFFF" points="66.375,53.756 84.891,53.756 84.891,59.369 73.075,59.369 73.075,65.298 83.127,65.298 
		83.127,70.87 73.075,70.87 73.075,77.661 85.344,77.661 85.344,83.276 66.375,83.276 	"/>
	<path fill="#FFFFFF" d="M105.006,53.212c3.671,0,6.746,1.812,8.741,3.849l-3.669,4.119c-1.492-1.356-2.896-2.217-4.979-2.217
		c-4.122,0-7.335,3.578-7.335,9.508c0,6.066,2.854,9.599,7.154,9.599c2.446,0,4.164-1.041,5.614-2.627l3.666,4.03
		c-2.445,2.852-5.704,4.348-9.372,4.348c-7.651,0-13.899-5.208-13.899-15.123C90.926,58.916,97.4,53.212,105.006,53.212"/>
	<polygon fill="#FFFFFF" points="120.947,53.756 127.647,53.756 127.647,65.117 137.837,65.117 137.837,53.756 144.492,53.756 
		144.492,83.276 137.837,83.276 137.837,70.96 127.647,70.96 127.647,83.276 120.947,83.276 	"/>
	<path fill="#FFFFFF" d="M60.975,125.977l-5.666-10.65h-3.626v10.65h-6.708V96.426h10.652c6.254,0,11.421,2.177,11.421,9.201
		c0,4.353-2.129,7.114-5.259,8.521l6.664,11.83H60.975z M51.683,110.022h3.4c3.489,0,5.394-1.496,5.394-4.396
		c0-2.901-1.905-3.898-5.394-3.898h-3.4V110.022z"/>
	<rect x="77.876" y="96.424" fill="#FFFFFF" width="6.707" height="29.554"/>
	<path fill="#FFFFFF" d="M97.857,117.682c2.084,1.813,4.805,3.08,7.252,3.08c2.766,0,4.125-1.088,4.125-2.854
		c0-1.858-1.676-2.446-4.261-3.534l-3.808-1.631c-3.08-1.223-5.98-3.764-5.98-8.068c0-4.896,4.396-8.793,10.515-8.793
		c3.397,0,6.979,1.36,9.516,3.897l-3.353,4.217c-1.949-1.496-3.807-2.36-6.163-2.36c-2.267,0-3.763,0.997-3.763,2.678
		c0,1.813,1.949,2.446,4.533,3.487l3.762,1.544c3.579,1.449,5.845,3.852,5.845,8.021c0,4.893-4.076,9.153-11.103,9.153
		c-3.852,0-7.931-1.451-10.967-4.261L97.857,117.682z"/>
	<polygon fill="#FFFFFF" points="125.5,96.426 144.036,96.426 144.036,102.048 132.206,102.048 132.206,107.984 142.268,107.984 
		142.268,113.559 132.206,113.559 132.206,120.356 144.492,120.356 144.492,125.977 125.5,125.977 	"/>
	<rect x="87.241" y="7.822" fill="#FFFFFF" width="6.833" height="13.567"/>
	<rect x="87.241" y="159.22" fill="#FFFFFF" width="6.833" height="13.567"/>
	<rect x="10.159" y="86.451" fill="#FFFFFF" width="13.565" height="6.828"/>
	<rect x="157.59" y="86.451" fill="#FFFFFF" width="13.567" height="6.828"/>
	<path fill="#FFFFFF" d="M17.962,113.755h-6.875c8.141,26.045,29.357,47.276,56.119,56.03v-6.491
		C43.29,155.469,25.314,136.795,17.962,113.755"/>
	<path fill="#FFFFFF" d="M11.087,66.854h6.875C25.314,43.817,43.29,25.14,67.207,17.318v-6.492
		C40.445,19.58,19.23,40.811,11.087,66.854"/>
	<path fill="#FFFFFF" d="M152.682,44.442c5.129,6.874,8.999,14.426,11.556,22.413h7.15c-2.757-9.472-7.2-18.415-13.232-26.498
		c-10.466-14.031-27.429-24.629-44.047-29.843v6.517C129.367,21.82,143.067,31.552,152.682,44.442"/>
	<path fill="#FFFFFF" d="M164.238,113.755c-2.557,7.987-6.427,15.54-11.557,22.414c-9.613,12.889-23.313,22.622-38.572,27.41v6.516
		c16.618-5.214,33.581-15.812,44.047-29.84c6.033-8.088,10.476-17.03,13.232-26.5H164.238z"/>
</g>
</svg>
