<?xml version="1.0" encoding="utf-8"?>
<!-- Generator: Adobe Illustrator 15.0.0, SVG Export Plug-In . SVG Version: 6.00 Build 0)  -->
<!DOCTYPE svg PUBLIC "-//W3C//DTD SVG 1.1//EN" "http://www.w3.org/Graphics/SVG/1.1/DTD/svg11.dtd">
<svg version="1.1" id="图层_1" xmlns="http://www.w3.org/2000/svg" xmlns:xlink="http://www.w3.org/1999/xlink" x="0px" y="0px"
	 width="50px" height="50px" viewBox="-10 -10 50 50" enable-background="new -10 -10 50 50" xml:space="preserve">
<path fill="#89FE00" d="M15.357,38.287c-2.96,0.016-5.892-0.583-8.608-1.759c-2.617-1.127-4.998-2.737-7.021-4.743
	c-2.006-2.021-3.615-4.401-4.739-7.018c-1.171-2.717-1.767-5.646-1.75-8.604c0-1.771,0.216-3.531,0.637-5.263
	c0.426-1.706,1.057-3.353,1.878-4.908c0.827-1.548,1.822-3,2.969-4.329c1.149-1.331,2.481-2.538,3.949-3.582
	c0.585-0.406,1.307-0.56,2.006-0.43C5.37-2.245,5.989-1.862,6.389-1.289C6.798-0.705,6.955,0.02,6.821,0.72
	c-0.104,0.7-0.506,1.321-1.103,1.703c-2.234,1.537-4.054,3.602-5.299,6.01c-1.244,2.387-1.89,5.039-1.885,7.731
	c0,2.298,0.449,4.495,1.334,6.526c1.736,4.019,4.939,7.222,8.958,8.956c2.036,0.886,4.231,1.334,6.528,1.334
	c2.298,0,4.496-0.448,6.531-1.334c1.993-0.859,3.808-2.088,5.342-3.619c1.53-1.535,2.75-3.35,3.591-5.346
	c0.876-2.062,1.322-4.281,1.311-6.521c0-2.684-0.591-5.218-1.756-7.545c-1.185-2.356-2.921-4.39-5.06-5.93
	c-0.572-0.422-0.944-1.056-1.039-1.759c-0.115-0.69,0.065-1.397,0.498-1.947c0.502-0.69,1.306-1.096,2.157-1.088
	c0.558,0,1.069,0.177,1.563,0.545c1.368,1.039,2.631,2.235,3.751,3.548c1.104,1.297,2.048,2.722,2.811,4.246
	c0.756,1.53,1.347,3.136,1.759,4.792c0.409,1.667,0.62,3.391,0.62,5.132c0.016,2.96-0.575,5.889-1.731,8.612
	c-1.112,2.621-2.722,5-4.739,7.01c-2.004,1.985-4.373,3.581-7.044,4.744C21.241,37.683,18.365,38.287,15.357,38.287z M15.357,15.752
	c-0.716,0.017-1.406-0.268-1.906-0.779c-0.502-0.484-0.78-1.154-0.767-1.85V-6.119c0-0.736,0.255-1.351,0.775-1.888
	c0.494-0.52,1.182-0.806,1.898-0.79c0.726,0,1.329,0.26,1.854,0.794c0.522,0.535,0.775,1.152,0.775,1.883v19.242
	c0,0.726-0.256,1.329-0.775,1.855C16.726,15.48,16.055,15.761,15.357,15.752z"/>
</svg>
