<?xml version="1.0" encoding="utf-8"?>
<!-- Generator: Adobe Illustrator 15.0.0, SVG Export Plug-In . SVG Version: 6.00 Build 0)  -->
<!DOCTYPE svg PUBLIC "-//W3C//DTD SVG 1.1//EN" "http://www.w3.org/Graphics/SVG/1.1/DTD/svg11.dtd">
<svg version="1.1" id="图层_1" xmlns="http://www.w3.org/2000/svg" xmlns:xlink="http://www.w3.org/1999/xlink" x="0px" y="0px"
	 width="80px" height="80px" viewBox="0 0 80 80" enable-background="new 0 0 80 80" xml:space="preserve">
<path fill="#3af600" d="M50.704,17.423c-1.014-1.05-2.688-1.08-3.742-0.065l-6.309,6.087l-6.065-6.056
	c-1.035-1.034-2.71-1.032-3.746,0.003c-1.032,1.035-1.029,2.711,0.003,3.745l5.987,5.977h-4.077c-1.461,0-2.646,1.186-2.646,2.647
	s1.186,2.646,2.646,2.646h5.276v2.647h-5.276c-1.461,0-2.646,1.186-2.646,2.646s1.186,2.646,2.646,2.646h5.276v5.432
	c0,1.465,1.186,2.647,2.646,2.647c1.464,0,2.647-1.183,2.647-2.647v-5.432h5.317c1.464,0,2.647-1.185,2.647-2.646
	s-1.184-2.646-2.647-2.646h-5.317v-2.647h5.317c1.464,0,2.647-1.186,2.647-2.646s-1.184-2.647-2.647-2.647h-4.167l6.16-5.944
	C51.689,20.15,51.718,18.477,50.704,17.423L50.704,17.423z M50.704,17.423"/>
<path fill="#3af600" d="M73.467,59.073c-1.69-0.696-6.639-2.713-11.717-4.692c5.137-5.585,8.07-12.948,8.07-20.563
	c0-16.783-13.658-30.438-30.444-30.438c-16.784,0-30.438,13.655-30.438,30.438c0,1.342,0.084,2.676,0.254,3.968
	c0.19,1.448,1.53,2.453,2.97,2.281c1.45-0.19,2.472-1.519,2.281-2.969c-0.14-1.064-0.211-2.167-0.211-3.28
	c0-13.863,11.28-25.145,25.145-25.145c13.866,0,25.149,11.281,25.149,25.145c0,7.009-2.821,13.512-7.95,18.319
	c-0.064,0.061-0.091,0.145-0.15,0.209c-3.545-1.318-6.562-2.355-7.756-2.536c-2.059-0.323-4.025,0.63-5.219,2.39
	c-0.995,1.473-1.248,3.212-0.67,4.653c0.354,0.882,1.695,2.721,3.289,4.738c-3.841-0.005-9.703-0.523-15.949-2.935
	c-2.586-0.998-5.744-4.354-8.531-7.314c-3.968-4.216-7.715-8.196-11.792-8.196c-1.516,0-2.956,0.566-4.163,1.636
	c-1.509,1.342-2.906,3.996-0.993,9.035C8.167,63.095,21.891,77.4,32.907,77.4h39.549c1.464,0,2.647-1.184,2.647-2.647V61.52
	C75.108,60.45,74.459,59.481,73.467,59.073L73.467,59.073z M69.814,72.109H32.997h-0.085c-8.072,0-20.436-12.583-23.318-20.171
	c-0.837-2.205-0.556-3.095-0.442-3.195c0.342-0.302,0.54-0.302,0.648-0.302c1.789,0,5.344,3.774,7.938,6.53
	c3.328,3.536,6.771,7.191,10.476,8.623c7.049,2.721,13.64,3.292,17.928,3.292c3.423,0,5.59-0.359,5.68-0.375
	c0.938-0.161,1.716-0.808,2.041-1.699c0.328-0.891,0.152-1.89-0.458-2.615c-2.234-2.654-4.847-5.939-5.566-7.059
	c0.024-0.048,0.043-0.086,0.029-0.097c1.89,0.289,13.436,4.794,21.942,8.259v8.809H69.814z M69.814,72.109"/>
</svg>
