<?xml version="1.0" encoding="utf-8"?>
<!-- Generator: Adobe Illustrator 15.0.0, SVG Export Plug-In . SVG Version: 6.00 Build 0)  -->
<!DOCTYPE svg PUBLIC "-//W3C//DTD SVG 1.1//EN" "http://www.w3.org/Graphics/SVG/1.1/DTD/svg11.dtd">
<svg version="1.1" id="图层_1" xmlns="http://www.w3.org/2000/svg" xmlns:xlink="http://www.w3.org/1999/xlink" x="0px" y="0px"
	 width="80px" height="80px" viewBox="0 0 80 80" enable-background="new 0 0 80 80" xml:space="preserve">
<path fill="#FF8A00" d="M23.357,29.755c0-4.931,4.316-8.943,9.622-8.943h10.927l-0.204-0.834c-0.843-3.422-4.6-5.45-8.375-4.521
	l-22.353,5.501c-3.774,0.929-6.16,4.469-5.318,7.893l6.974,28.331c0.842,3.422,4.598,5.452,8.373,4.522l0.531-0.13
	c-0.115-0.555-0.177-1.126-0.177-1.71V29.755L23.357,29.755z"/>
<path fill="#FF8A00" d="M48.781,19.437c0.175,0.479,0.807,0.797,1.453,0.797c0.181,0,0.361-0.025,0.533-0.077l0.168-0.051
	c0.424-0.129,0.819-0.476,1.035-0.903c0.156-0.317,0.19-0.631,0.1-0.884l-2.553-6.934c-0.234-0.635-1.39-0.914-2.138-0.688
	l-0.099,0.029c-0.389,0.117-0.729,0.418-0.934,0.824c-0.174,0.351-0.214,0.713-0.106,0.998L48.781,19.437z"/>
<path fill="#FF8A00" d="M59.98,20.955l0.164,0.06c0.194,0.071,0.41,0.104,0.625,0.104c0.633,0,1.271-0.286,1.465-0.729l3.015-6.779
	c0.101-0.225,0.084-0.515-0.045-0.814c-0.199-0.471-0.619-0.882-1.072-1.047l-0.099-0.034c-0.764-0.278-1.85,0.053-2.11,0.646
	l-2.993,6.735c-0.105,0.242-0.092,0.55,0.045,0.871C59.165,20.42,59.552,20.8,59.98,20.955L59.98,20.955z"/>
<path fill="#FF8A00" d="M39.546,53.544"/>
<path fill="#FF8A00" d="M75.34,19.801l-0.07-0.069c-0.576-0.568-1.688-0.713-2.199-0.287l-5.887,4.898
	c-0.223,0.185-0.356,0.507-0.373,0.885c-0.021,0.475,0.15,0.949,0.447,1.24l0.118,0.118c0.338,0.332,0.854,0.521,1.324,0.536
	c0.329,0.009,0.639-0.067,0.846-0.238l5.925-4.93c0.211-0.175,0.334-0.472,0.35-0.834C75.84,20.625,75.65,20.107,75.34,19.801
	L75.34,19.801z"/>
<path fill="#FF8A00" d="M56.734,23.159H32.98c-4.011,0-7.274,2.959-7.274,6.596v30.108c0,3.638,3.264,6.597,7.274,6.597h23.754
	c4.01,0,7.272-2.959,7.272-6.597V29.755C64.009,26.119,60.744,23.159,56.734,23.159z M55.273,59.75H34.44v-2.167h20.833V59.75z
	 M36.349,53.625v-2.168h17.017v2.168H36.349z M60.046,32.427l-14.416,5.85c-0.149,0.062-0.31,0.092-0.468,0.092
	c-0.159,0-0.316-0.03-0.469-0.092l-14.417-5.859c-0.636-0.259-0.94-0.984-0.683-1.621c0.258-0.635,0.982-0.941,1.62-0.682
	l13.948,5.669l13.946-5.66c0.636-0.259,1.361,0.048,1.619,0.685C60.989,31.443,60.684,32.167,60.046,32.427z"/>
</svg>
