<?xml version="1.0" encoding="utf-8"?>
<!-- Generator: Adobe Illustrator 15.0.0, SVG Export Plug-In . SVG Version: 6.00 Build 0)  -->
<!DOCTYPE svg PUBLIC "-//W3C//DTD SVG 1.1//EN" "http://www.w3.org/Graphics/SVG/1.1/DTD/svg11.dtd">
<svg version="1.1" id="图层_1" xmlns="http://www.w3.org/2000/svg" xmlns:xlink="http://www.w3.org/1999/xlink" x="0px" y="0px"
	 width="80px" height="80px" viewBox="0 0 80 80" enable-background="new 0 0 80 80" xml:space="preserve">
<path fill="#89FE00" d="M8.465,29.291c0-1.29,0.219-2.21,0.634-2.768c0.423-0.549,1.355-0.818,2.817-0.818h8.986v35.84h-3.859
	c-1.018,0-2.034-0.01-3.052-0.033c-1.014-0.016-1.698-0.033-2.072-0.033c-1.266,0.051-2.157-0.166-2.674-0.649
	c-0.512-0.478-0.777-1.392-0.777-2.729V47.783c0-0.525,0.089-0.926,0.248-1.176c0.159-0.263,0.5-0.443,1.018-0.543
	c0.191,0,0.439-0.072,0.777-0.215c0.321-0.15,0.651-0.384,0.977-0.691c0.325-0.311,0.611-0.709,0.842-1.217
	c0.232-0.498,0.355-1.104,0.355-1.828c0-1.1-0.289-1.953-0.875-2.577c-0.586-0.618-1.213-0.985-1.872-1.07
	c-0.509-0.092-0.888-0.256-1.12-0.468c-0.236-0.224-0.354-0.589-0.354-1.114L8.465,29.291"/>
<path fill="#89FE00" d="M14.297,22.48v-1.868c0-0.949,0.369-1.839,1.09-2.65c0.72-0.81,1.51-1.221,2.353-1.221h9.702v5.739H14.297"
	/>
<path fill="#89FE00" d="M71.572,38.033c-0.365,0.101-0.643,0.301-0.812,0.618c-0.147,0.302-0.247,0.651-0.247,1.026
	c0,0.39,0.094,0.758,0.247,1.109c0.169,0.368,0.444,0.621,0.812,0.762c0.373,0.147,0.677,0.433,0.884,0.854
	c0.216,0.437,0.334,0.886,0.351,1.367c0.024,0.461-0.035,0.922-0.174,1.361c-0.144,0.426-0.351,0.74-0.629,0.934
	c-0.934,0.574-1.398,1.218-1.398,1.935c0,0.719,0.461,1.44,1.398,2.146c0.191,0.148,0.36,0.414,0.523,0.783
	c0.158,0.391,0.24,0.771,0.24,1.16c0,0.387-0.084,0.707-0.273,0.994c-0.191,0.293-0.52,0.436-0.986,0.436h-3.791
	c-0.271,0-0.429-0.022-0.445-0.082c-0.022-0.047,0.008-0.125,0.095-0.24c0.096-0.125,0.207-0.254,0.352-0.405
	c0.142-0.144,0.257-0.312,0.356-0.5c0.232-0.666,0.232-1.242,0-1.72c-0.241-0.481-0.626-0.883-1.198-1.215
	c-0.376-0.19-0.651-0.492-0.804-0.908c-0.166-0.399-0.23-0.817-0.207-1.249c0.016-0.437,0.094-0.812,0.24-1.144
	c0.143-0.342,0.355-0.582,0.625-0.727c0.386-0.145,0.658-0.408,0.843-0.785c0.19-0.375,0.284-0.785,0.284-1.217
	s-0.08-0.828-0.207-1.186c-0.141-0.357-0.35-0.609-0.645-0.75c-0.365-0.197-0.654-0.476-0.872-0.867
	c-0.213-0.364-0.313-0.793-0.313-1.271c0-0.485,0.084-0.944,0.275-1.4c0.19-0.456,0.483-0.827,0.908-1.112
	c0.293-0.191,0.523-0.451,0.707-0.786c0.199-0.341,0.283-0.691,0.324-1.074c0.025-0.386-0.064-0.753-0.215-1.111
	c-0.168-0.362-0.461-0.654-0.885-0.895c-0.457-0.236-0.811-0.589-1.018-1.037c-0.207-0.456-0.316-0.929-0.316-1.4
	c0-0.485,0.107-0.932,0.316-1.368c0.207-0.422,0.501-0.765,0.874-1.009c0.795-0.423,1.241-1.013,1.301-1.75
	c0.076-0.74,0.021-1.428-0.172-2.039c-0.151-0.483-0.425-0.912-0.836-1.294c-0.426-0.386-0.97-0.574-1.618-0.574h-33.73v-5.661
	h39.568c0.325,0,0.592,0.123,0.825,0.358c0.237,0.241,0.396,0.526,0.47,0.862c0.071,0.334,0.049,0.68-0.074,1.039
	c-0.11,0.354-0.334,0.663-0.666,0.903c-0.287,0.241-0.534,0.542-0.741,0.927c-0.218,0.383-0.317,0.774-0.358,1.185
	c-0.017,0.41,0.049,0.81,0.184,1.221c0.136,0.403,0.394,0.704,0.769,0.895c0.526,0.285,0.909,0.68,1.162,1.175
	c0.26,0.501,0.396,1.002,0.396,1.499c0,0.508-0.136,0.972-0.394,1.399c-0.255,0.436-0.608,0.75-1.082,0.932
	c-0.515,0.2-0.899,0.468-1.126,0.827c-0.241,0.362-0.357,0.757-0.391,1.18c-0.022,0.431,0.063,0.851,0.269,1.253
	c0.218,0.412,0.56,0.765,1.026,1.05c0.467,0.277,0.816,0.659,1.023,1.144c0.199,0.45,0.293,0.939,0.273,1.432
	c-0.02,0.463-0.139,0.914-0.35,1.328C72.307,37.75,71.999,37.982,71.572,38.033"/>
<path fill="#89FE00" d="M62.516,45.419c0.373-0.181,0.659-0.476,0.842-0.856c0.187-0.379,0.271-0.797,0.248-1.22
	c-0.025-0.43-0.153-0.834-0.394-1.225c-0.231-0.375-0.587-0.658-1.049-0.857c-0.522-0.19-0.899-0.502-1.167-0.925
	c-0.249-0.436-0.369-0.867-0.354-1.294c0.035-0.439,0.19-0.851,0.494-1.266c0.309-0.395,0.746-0.676,1.303-0.818
	c0.477-0.143,0.819-0.399,1.029-0.748c0.203-0.368,0.299-0.742,0.274-1.16c-0.015-0.403-0.168-0.791-0.423-1.177
	c-0.252-0.386-0.603-0.671-1.016-0.862c-0.568-0.188-0.964-0.473-1.203-0.859c-0.227-0.386-0.322-0.773-0.285-1.184
	c0.054-0.399,0.201-0.778,0.461-1.106c0.26-0.335,0.603-0.575,1.027-0.721c0.413-0.139,0.719-0.408,0.905-0.786
	c0.19-0.379,0.281-0.758,0.258-1.144c-0.036-0.386-0.146-0.729-0.353-1.038c-0.217-0.322-0.518-0.468-0.891-0.468H25.049v35.85
	h36.758c0.381,0,0.674-0.154,0.881-0.471c0.215-0.301,0.34-0.648,0.398-1.031c0.044-0.383-0.016-0.77-0.184-1.186
	c-0.166-0.401-0.426-0.7-0.809-0.893c-0.56-0.289-0.971-0.646-1.229-1.082c-0.266-0.429-0.381-0.853-0.35-1.295
	c0.027-0.425,0.184-0.832,0.478-1.207c0.317-0.39,0.745-0.645,1.312-0.787c0.414-0.155,0.721-0.392,0.908-0.765
	c0.189-0.35,0.28-0.764,0.256-1.209c-0.029-0.459-0.168-0.889-0.428-1.295c-0.243-0.394-0.598-0.705-1.018-0.894
	c-0.936-0.485-1.385-1.129-1.326-1.938C60.732,46.691,61.346,46.003,62.516,45.419z M31.237,35.751h15.897v2.587H31.237V35.751z
	 M52.227,50.268h-20.99V47.68h20.99V50.268z M54.624,44.302H31.237v-2.587h23.387V44.302z"/>
</svg>
