<?xml version="1.0" encoding="utf-8"?>
<!-- Generator: Adobe Illustrator 15.0.0, SVG Export Plug-In . SVG Version: 6.00 Build 0)  -->
<!DOCTYPE svg PUBLIC "-//W3C//DTD SVG 1.1//EN" "http://www.w3.org/Graphics/SVG/1.1/DTD/svg11.dtd">
<svg version="1.1" id="图层_1" xmlns="http://www.w3.org/2000/svg" xmlns:xlink="http://www.w3.org/1999/xlink" x="0px" y="0px"
	 width="80px" height="80px" viewBox="-25 -25 80 80" enable-background="new -25 -25 80 80" xml:space="preserve">
<path fill="#89FE00" d="M0.943,25.206l2.503-1.349l9.628,5.392V15.963L11.149,15L1.521,9.416v10.976l-2.118,1.155l-8.087-4.621
	l-9.628,5.392v11.168l9.628,5.392l9.628-5.392V25.206z M30.404,21.547l-1.926-1.155V9.416l-11.553,6.547v13.286l9.628-5.392
	l2.503,1.349v8.279l9.628,5.392l9.628-5.392V22.317l-9.628-5.392L30.404,21.547z M30.404-13.113v8.857L40.61,1.329v10.013
	l0.963,0.578l6.739,3.852V-3.293L30.404-13.113z M24.628,37.529L15,42.729l-9.628-5.199l-1.541,0.963l-6.354,3.466L15,51.586
	l17.522-9.628l-6.354-3.466L24.628,37.529z M-10.61,11.341V1.329l10.206-5.584v-8.857l-17.908,9.82v19.063l6.739-3.852
	L-10.61,11.341z M3.446,6.143L15,12.689l1.926-1.155l9.628-5.392l-9.628-5.392v-1.348l7.702-4.429v-10.976L15-21.586l-9.628,5.584
	v10.976l7.702,4.429v1.348L3.446,6.143z"/>
</svg>
